# xmcd CD database file
#
# Track frame offsets:
#	150
#	13139
#	26877
#	41004
#	52070
#	64775
#	76946
#	91668
#	105533
#	118301
#	131787
#	147038
#	162084
#	176017
#	206133
#	220503
#	233294
#	247305
#	257934
#	271934
#	286392
#	300430
#	310654
#	326914
#
# Disc length: 4500 seconds
#
# Revision: 4
# Processed by: cddbd v1.5.2PL0 Copyright (c) Steve Scherf et al.
# Submitted via: CDex 1.51
#
DISCID=5c119218
DTITLE=Various Artist - Traveling Man (A Blues Travel Guide)
DYEAR=2005
DGENRE=Blues
TTITLE0=PART I - JACKSON-CHICAGO - Robert Nighthawk - Jackson Town Gal  [1950]
TTITLE1=Little Brother Montgomery - Vicksburg Blues N°2  [1935]
TTITLE2=Pearl Dickson - Little Rock Blues  [1927]
TTITLE3=Memphis Jug Band - Going Back To Memphis  [1930]
TTITLE4=Jim Jackson - St. Louis Blues  [1930]
TTITLE5=Little Willie Littlefield - K. C. Loving  [1952]
TTITLE6=Arthur 'Big Boy' Crudup - Chicago Blues  [1946]
TTITLE7=PART II - MEMPHIS-DETROIT - Washboard Sam - Nashville, Tennessee  [1936]
TTITLE8=Walter Coleman - I'm Going To Cincinnati  [1936]
TTITLE9=Bull Moose Jackson - Cleveland Ohio Blues  [1945]
TTITLE10=Tampa Red - Detroit Blues  [1944]
TTITLE11=PART III - BIRMINGHAM-NEW YORK - Jazz Gillum - Birmingham Blues  [1937]
TTITLE12=Barbecue Bob - Atlanta Moan  [1930]
TTITLE13=Too Tight Henry - Charleston Contest  [1928]
TTITLE14=Julius Daniels - Richmond Blues  [1927]
TTITLE15=Charlie McCoy - Baltimore Blues  [1934]
TTITLE16=Lead Belly - New York City  [1940]
TTITLE17=PART IV - NEW ORLEANS-SAN FRANCISCO - Fats Domino - Mardi Gras In New Orleans  [1952]
TTITLE18=Lillian Glinn - Shreveport Blues  [1929]
TTITLE19=Floyd Dixon - Houston Jump  [1947]
TTITLE20=Lawyer Houston - Dallas Bebop Blues  [1950]
TTITLE21=Thunder Smith - Santa Fe Blues  [1949]
TTITLE22=Cecil Gant - Blues In L. A.  [1945]
TTITLE23=Lowell Fulson - San Francisco Blues  [1946]
EXTD=YEAR: 2005
EXTT0=
EXTT1=
EXTT2=
EXTT3=
EXTT4=
EXTT5=
EXTT6=
EXTT7=
EXTT8=
EXTT9=
EXTT10=
EXTT11=
EXTT12=
EXTT13=
EXTT14=
EXTT15=
EXTT16=
EXTT17=
EXTT18=
EXTT19=
EXTT20=
EXTT21=
EXTT22=
EXTT23=
PLAYORDER=
